<?xml version="1.0" encoding="iso-8859-1"?>
<!-- Uploaded to: SVG Repo, www.svgrepo.com, Generator: SVG Repo Mixer Tools -->
<svg fill="#000000" height="800px" width="800px" version="1.1" id="Layer_1" xmlns="http://www.w3.org/2000/svg" xmlns:xlink="http://www.w3.org/1999/xlink" 
	 viewBox="0 0 512.001 512.001" xml:space="preserve">
<g>
	<g>
		<circle cx="57.763" cy="185.229" r="46.962"/>
	</g>
</g>
<g>
	<g>
		<path d="M294.532,384.678l-107.447-20.546c-2.921-0.557-5.919-0.591-8.852-0.098c-7.552,1.272-48.574,8.18-68.807,11.588
			c-8.284,1.395-16.74-1.593-22.294-7.896l-48.95-55.91c6.434,3.992,54.442,33.774,61.239,37.99
			c6.109,3.789,13.854,4.214,20.435,0.869l20.801-10.573c2.771,3.057,6.761,4.99,11.213,4.99h18.009h52.273
			c5.839,0,11.157-3.356,13.67-8.625l37.426-78.442c3.604-7.55,0.403-16.591-7.147-20.193c-7.55-3.599-16.591-0.403-20.193,7.148
			l-33.312,69.817c-9.149,0-4.147,0-27.78,0c4.163-6.086,4.964-14.195,1.387-21.231c-5.216-10.264-17.767-14.351-28.027-9.137
			l-46.75,23.765c-7.271-4.51-54.169-33.604-61.544-38.179l53.238,16.801l-2.091-12.986c-3.082-19.145-21.196-32.111-40.306-28.866
			l-31.656,5.375c-19.136,3.25-31.948,21.504-28.511,40.597L21.53,407.453c3.425,19.027,21.685,31.655,40.698,28.142l119.878-21.481
			l103.029,19.702c13.568,2.593,26.672-6.303,29.265-19.871C316.998,400.376,308.1,387.273,294.532,384.678z"/>
	</g>
</g>
<g>
	<g>
		<circle cx="387.269" cy="121.333" r="45.514"/>
	</g>
</g>
<g>
	<g>
		<path d="M511.978,318.631c-0.165-3.847,0.312-0.663-23.117-123.996c-3.583-18.863-21.885-31.184-40.704-27.414l-31.147,6.236
			c-18.809,3.766-30.946,22.16-27.019,40.93l5.861,26.752l22.549-32.737l-14.263,42.789l-73.334,28.959
			c-10.592,4.183-15.788,16.161-11.604,26.753c4.183,10.594,16.161,15.788,26.753,11.605l82.279-32.493
			c5.671-2.24,10.06-6.875,11.987-12.659l17.304-51.914l-2.379,56.889c-0.368,8.791-5.916,16.298-13.796,19.425
			c-93.545,36.68-93.545,36.68-93.545,36.68s32.155,34.89,90.893,94.374c9.597,9.735,25.265,9.841,34.993,0.249
			c9.732-9.594,9.844-25.261,0.249-34.993l-46.749-47.421l61.43-2.526C502.124,343.564,512.556,332.134,511.978,318.631z"/>
	</g>
</g>
</svg>