<svg version="1.1" id="Layer_1" xmlns="http://www.w3.org/2000/svg" xmlns:xlink="http://www.w3.org/1999/xlink" x="0px" y="0px"
	 width="24" height="24" viewBox="0 0 128 101" enable-background="new 0 0 128 101" xml:space="preserve">
<path fill="#FDFDFD" opacity="1.000000" stroke="none" 
	d="
M85.000000,102.000000 
	C56.666668,102.000000 28.833334,102.000000 1.000000,102.000000 
	C1.000000,68.333336 1.000000,34.666668 1.000000,1.000000 
	C43.666668,1.000000 86.333336,1.000000 129.000000,1.000000 
	C129.000000,34.666668 129.000000,68.333336 129.000000,102.000000 
	C114.500000,102.000000 100.000000,102.000000 85.000000,102.000000 
M29.541363,26.923729 
	C29.732132,26.610245 29.922903,26.296761 30.564001,25.659639 
	C30.299219,25.098555 30.034435,24.537472 30.089876,23.354050 
	C31.058794,21.789700 32.027710,20.225348 32.996628,18.660997 
	C32.665638,18.345701 32.334644,18.030403 32.003654,17.715107 
	C30.344234,18.817736 28.684816,19.920364 26.326429,21.019911 
	C25.218721,21.991724 24.111015,22.963537 22.339584,24.002571 
	C21.759222,24.620560 21.178860,25.238548 20.116247,26.306099 
	C15.732484,29.841869 14.423373,34.562447 14.202907,40.123737 
	C13.808619,41.097469 13.414330,42.071201 12.893064,43.931656 
	C13.007756,46.890762 13.122448,49.849869 12.857445,53.498310 
	C12.630526,54.747158 12.403606,55.996006 12.297934,57.924603 
	C13.520546,60.633381 14.743158,63.342155 15.972442,66.742928 
	C16.220102,67.817490 16.467764,68.892044 17.025640,70.475624 
	C17.354343,70.661354 17.683046,70.847084 18.012934,70.993431 
	C18.012934,70.993431 17.975027,70.985138 17.843193,71.701126 
	C19.551502,73.817299 21.259811,75.933464 22.990549,78.742981 
	C23.953136,80.168900 24.915726,81.594818 26.363239,83.475151 
	C27.893541,84.380989 29.423841,85.286827 31.038836,86.764458 
	C31.394552,87.188400 31.750267,87.612350 32.266834,88.487106 
	C32.465557,88.750801 32.720123,88.938988 33.029713,88.997353 
	C33.029713,88.997353 32.976894,88.984886 33.414246,89.567169 
	C38.272858,93.519608 43.662495,91.900368 48.961483,91.668007 
	C48.920845,92.077980 48.880203,92.487953 48.505039,93.134933 
	C48.619881,93.455772 48.734718,93.776604 49.249439,94.590958 
	C50.832905,93.393967 52.416367,92.196983 54.416801,90.563049 
	C54.788414,90.083206 55.160027,89.603363 56.224194,89.131241 
	C59.601204,86.467430 62.571873,86.916176 65.646011,89.887260 
	C67.508194,91.687027 69.919258,92.918892 72.525215,94.072800 
	C72.638397,93.735680 72.751587,93.398552 73.197311,92.490807 
	C73.806099,92.261581 74.414894,92.032356 75.906822,91.892776 
	C80.651558,92.001320 85.544167,92.606224 89.572777,87.921921 
	C90.018188,87.232170 90.463600,86.542419 91.396942,85.382042 
	C93.136612,83.909630 94.876282,82.437218 97.176643,80.805206 
	C97.425140,79.835075 97.673637,78.864952 98.294083,77.349640 
	C99.875877,75.233238 101.457672,73.116829 102.996437,70.998940 
	C102.996437,70.998940 103.003029,71.041672 103.469208,71.014397 
	C103.469208,71.014397 103.932266,70.953896 104.497658,70.645943 
	C104.641243,69.075768 104.784828,67.505592 105.038155,65.229195 
	C107.026192,61.811176 110.319664,58.761795 107.958916,53.967613 
	C107.958916,53.967613 107.751976,53.768112 107.786301,52.868507 
	C107.786301,49.000305 107.786301,45.132103 107.786301,41.263901 
	C107.643013,41.272343 107.499733,41.280781 107.356445,41.289219 
	C106.845657,43.156578 106.334869,45.023937 105.211403,46.961765 
	C105.006271,46.982063 104.801147,47.002357 104.748962,46.169594 
	C105.773888,40.336975 107.884415,34.402302 102.598785,29.019716 
	C102.414894,29.012274 102.231010,29.004833 101.855644,28.345263 
	C100.934090,26.846302 100.012535,25.347340 98.982201,23.277246 
	C97.985695,22.855894 96.989189,22.434542 95.705833,21.481215 
	C95.141876,21.316504 94.577911,21.151793 93.620552,20.435177 
	C91.659889,19.215191 89.699219,17.995207 87.738556,16.775221 
	C87.496262,17.101702 87.253967,17.428181 87.011665,17.754662 
	C88.002724,19.174984 88.993790,20.595306 89.999680,22.720671 
	C90.253815,23.807653 90.507950,24.894634 91.030884,26.503687 
	C91.352798,26.680986 91.674713,26.858284 92.000374,26.996397 
	C92.000374,26.996397 91.962456,27.003988 91.782700,27.687574 
	C92.571762,29.064955 93.360817,30.442337 94.068382,32.382336 
	C94.254181,32.867687 94.439987,33.353043 94.773750,34.592644 
	C95.900566,37.054844 97.027382,39.517048 97.618095,42.249023 
	C97.574852,43.092438 97.531609,43.935848 97.658295,45.674057 
	C97.876663,47.785049 98.095024,49.896042 98.075218,52.675316 
	C97.737000,53.784039 97.398773,54.892765 96.729301,56.717461 
	C96.431747,59.108734 96.134201,61.500004 95.422813,63.748508 
	C94.957405,63.803032 94.492004,63.857559 93.397964,64.229362 
	C91.885353,67.131828 90.372742,70.034294 88.316383,73.003380 
	C87.890152,73.294632 87.463913,73.585884 86.358383,74.020737 
	C82.573227,77.014458 78.788071,80.008171 74.316048,82.992363 
	C73.524971,83.592201 72.733894,84.192032 71.136902,84.848587 
	C69.791191,84.735649 68.445473,84.622711 66.439835,84.185524 
	C62.594353,84.324661 58.748871,84.463806 54.045341,84.684326 
	C52.033401,84.780624 50.021461,84.876923 47.616066,84.436691 
	C43.075993,80.953362 38.535915,77.470024 33.717125,73.499054 
	C33.201542,73.307007 32.685955,73.114960 31.955975,72.240723 
	C30.193663,70.956314 31.865343,65.708824 26.830109,68.382591 
	C26.668085,68.660088 26.431597,68.839294 26.025446,68.193733 
	C25.982050,67.462494 25.938654,66.731255 26.583868,65.899666 
	C26.970657,65.291756 27.357445,64.683846 27.744232,64.075935 
	C26.911938,63.685970 26.079643,63.296005 25.133320,62.111092 
	C24.437738,59.750618 23.742157,57.390148 22.563707,54.991840 
	C22.563707,54.991840 22.080145,54.995628 22.082537,54.176697 
	C22.481827,51.149124 22.881117,48.121555 23.660311,44.573711 
	C24.028734,39.195827 24.489450,33.845341 28.638758,28.949144 
	C28.773239,28.299765 28.907722,27.650383 28.997236,26.989437 
	C28.997236,26.989437 28.996706,27.035866 29.541363,26.923729 
M84.440506,40.159584 
	C84.440506,36.525242 84.440506,32.890903 84.440506,29.060968 
	C79.158722,28.304199 73.187508,30.734587 70.099716,24.532598 
	C69.936081,24.203928 68.853661,24.261909 68.198624,24.260080 
	C63.706684,24.247532 59.207348,24.128679 54.727341,24.365116 
	C53.470402,24.431454 52.273945,25.580370 51.043118,26.219950 
	C49.326569,27.111919 47.686699,28.405224 45.862446,28.771133 
	C43.641796,29.216551 41.263695,28.877007 38.469730,28.877007 
	C37.919643,43.797798 38.188412,58.188564 46.463676,71.017792 
	C54.402241,83.325027 68.626038,83.007156 76.517471,70.616974 
	C82.275459,61.576447 83.597702,51.411438 84.440506,40.159584 
z"/>
<path fill="#1F1F1F" opacity="1.000000" stroke="none" 
	d="
M84.401245,40.616230 
	C83.597702,51.411438 82.275459,61.576447 76.517471,70.616974 
	C68.626038,83.007156 54.402241,83.325027 46.463676,71.017792 
	C38.188412,58.188564 37.919643,43.797798 38.469730,28.877007 
	C41.263695,28.877007 43.641796,29.216551 45.862446,28.771133 
	C47.686699,28.405224 49.326569,27.111919 51.043118,26.219950 
	C52.273945,25.580370 53.470402,24.431454 54.727341,24.365116 
	C59.207348,24.128679 63.706684,24.247532 68.198624,24.260080 
	C68.853661,24.261909 69.936081,24.203928 70.099716,24.532598 
	C73.187508,30.734587 79.158722,28.304199 84.440506,29.060968 
	C84.440506,32.890903 84.440506,36.525242 84.401245,40.616230 
M81.212227,42.384373 
	C81.212227,38.974350 81.212227,35.564327 81.212227,32.004536 
	C76.155281,31.849508 72.427521,30.461609 68.416267,28.829924 
	C63.913898,26.998466 56.165890,24.746874 51.262302,31.251469 
	C50.755196,31.924143 49.126572,31.880316 48.007000,31.934425 
	C45.921608,32.035213 43.827873,31.963352 41.441071,31.963352 
	C40.874176,44.898296 41.243244,57.091904 48.117641,67.758797 
	C56.016758,80.015709 67.589462,79.271858 74.994278,67.236107 
	C79.490379,59.928165 80.678658,51.711140 81.212227,42.384373 
z"/>
<path fill="#ADB9A9" opacity="1.000000" stroke="none" 
	d="
M95.836655,63.891277 
	C96.134201,61.500004 96.431747,59.108734 97.217697,56.359062 
	C98.137199,56.000553 98.568306,56.000439 98.865631,56.309662 
	C98.598549,57.567692 98.465240,58.516380 98.331932,59.465069 
	C98.970062,59.381935 99.608200,59.298801 100.246338,59.215672 
	C99.830994,58.143665 99.415649,57.071663 99.131172,55.696384 
	C98.945824,54.264416 98.629608,53.135727 98.313393,52.007034 
	C98.095024,49.896042 97.876663,47.785049 97.934753,45.394241 
	C99.859085,47.611698 101.506943,50.108978 103.514381,53.151184 
	C104.398071,50.756172 105.111084,48.823734 105.824089,46.891296 
	C106.334869,45.023937 106.845657,43.156578 107.356445,41.289219 
	C107.499733,41.280781 107.643013,41.272343 107.786301,41.263901 
	C107.786301,45.132103 107.786301,49.000305 107.601364,53.456909 
	C107.471352,54.288658 107.526283,54.532009 107.581207,54.775356 
	C107.774277,54.574448 107.967346,54.373539 108.160408,54.172626 
	C110.319664,58.761795 107.026192,61.811176 104.711014,65.726868 
	C103.809814,67.044395 103.235756,67.864243 102.315323,68.738831 
	C99.668076,69.888145 97.367210,70.982727 95.036079,72.043945 
	C95.005814,72.010582 94.939255,71.949867 94.937927,71.543335 
	C95.236618,68.721634 95.536636,66.306458 95.836655,63.891277 
M103.351784,59.927635 
	C102.914200,60.279457 102.476616,60.631279 101.463295,61.057892 
	C101.152527,61.453064 100.841751,61.848236 100.530975,62.243408 
	C100.789223,62.330208 101.245186,62.535343 101.275055,62.485451 
	C101.564552,62.001789 101.782570,61.475346 102.625435,60.968769 
	C103.099663,60.659573 103.573891,60.350376 104.451187,59.903503 
	C104.421402,59.687778 104.391624,59.472057 104.361839,59.256332 
	C104.222969,59.484116 104.084106,59.711899 103.351784,59.927635 
M106.379860,57.522198 
	C106.466743,57.185043 106.553635,56.847893 106.640526,56.510742 
	C106.423393,56.734196 106.206253,56.957649 106.379860,57.522198 
z"/>
<path fill="#B0BBAC" opacity="1.000000" stroke="none" 
	d="
M14.856857,39.954533 
	C14.423373,34.562447 15.732484,29.841869 20.748886,26.124290 
	C21.900696,25.960770 22.419865,25.979059 22.941833,26.359806 
	C22.679443,28.222094 22.414257,29.721922 22.149071,31.221748 
	C22.416607,31.352058 22.684145,31.482367 22.951681,31.612677 
	C23.968727,30.403818 24.985771,29.194958 26.002253,27.994213 
	C26.001688,28.002327 25.985905,27.998394 26.313908,28.020706 
	C27.075556,27.979258 27.509205,27.915497 27.992701,28.250332 
	C28.078707,28.914274 28.114862,29.179625 28.151020,29.444973 
	C24.489450,33.845341 24.028734,39.195827 23.196949,44.805107 
	C22.552429,45.027218 22.371273,45.017925 22.011719,44.830982 
	C21.551577,45.111679 21.269835,45.570030 20.991146,46.012024 
	C20.994202,45.995667 21.022608,45.978336 20.698166,46.077896 
	C19.832315,47.300903 19.290909,48.424347 18.749500,49.547791 
	C18.326225,49.147476 17.902948,48.747162 17.479673,48.346848 
	C16.605402,45.549412 15.731129,42.751972 14.856857,39.954533 
M18.729408,36.904854 
	C18.230856,36.959694 17.732306,37.014530 17.233753,37.069370 
	C17.348503,37.515472 17.463251,37.961578 17.577999,38.407681 
	C18.003628,38.105785 18.429258,37.803890 18.729408,36.904854 
M20.587255,36.516312 
	C20.587255,36.516312 20.477615,36.581455 20.587255,36.516312 
z"/>
<path fill="#ADB9A9" opacity="1.000000" stroke="none" 
	d="
M33.995842,73.986694 
	C38.535915,77.470024 43.075993,80.953362 47.760490,85.043228 
	C47.202431,86.076729 46.499947,86.503708 45.571602,86.629410 
	C40.548538,86.282974 35.751339,86.237816 30.954142,86.192665 
	C29.423841,85.286827 27.893541,84.380989 26.354883,82.940094 
	C30.446646,82.765450 34.546764,83.125862 38.646881,83.486275 
	C38.816437,83.156860 38.985996,82.827438 39.155552,82.498024 
	C37.765293,81.327545 36.375034,80.157066 34.992790,78.993507 
	C35.000805,79.000427 35.008686,79.020096 35.056553,78.674316 
	C34.732677,77.546097 34.360935,76.763664 33.995136,75.989670 
	C34.001080,75.998116 34.012356,76.015396 34.036545,75.677582 
	C34.039101,74.888748 34.017471,74.437721 33.995842,73.986694 
z"/>
<path fill="#B0BBAB" opacity="1.000000" stroke="none" 
	d="
M75.002907,83.001884 
	C78.788071,80.008171 82.573227,77.014458 86.661667,74.344574 
	C86.973190,75.456039 86.981422,76.243675 86.991531,77.013634 
	C86.993401,76.995964 87.023399,76.976906 86.734924,77.109970 
	C86.293716,77.839333 86.140984,78.435646 85.990585,79.014397 
	C85.992905,78.996841 86.023033,78.978226 85.698563,79.082916 
	C84.380203,80.265602 83.386322,81.343597 82.392441,82.421593 
	C82.637413,82.800026 82.882393,83.178467 83.127365,83.556900 
	C87.623558,82.692871 92.119759,81.828835 96.615952,80.964806 
	C94.876282,82.437218 93.136612,83.909630 90.751877,85.648666 
	C84.726768,85.603477 79.346718,85.291649 73.981544,84.987503 
	C73.996414,84.995178 74.014145,85.023552 74.094574,84.752533 
	C74.450966,83.988312 74.726936,83.495102 75.002907,83.001884 
z"/>
<path fill="#ACB8A8" opacity="1.000000" stroke="none" 
	d="
M15.965772,66.050934 
	C14.743158,63.342155 13.520546,60.633381 12.549982,57.567390 
	C14.538514,58.813293 16.275000,60.416405 18.005180,62.010269 
	C17.998878,62.001019 17.980656,61.988018 18.102160,62.305168 
	C19.264811,63.640636 20.305960,64.658951 21.674732,65.997711 
	C22.205536,61.753876 22.626057,58.391777 23.046574,55.029675 
	C23.742157,57.390148 24.437738,59.750618 25.121449,62.841675 
	C25.371469,64.381516 25.633366,65.190765 25.895260,66.000015 
	C25.938654,66.731255 25.982050,67.462494 26.036964,68.910507 
	C26.130630,70.693153 26.212778,71.759026 26.390526,74.065277 
	C22.361366,70.967743 19.163568,68.509338 15.965772,66.050934 
z"/>
<path fill="#ABB7A6" opacity="1.000000" stroke="none" 
	d="
M88.860123,72.936752 
	C90.372742,70.034294 91.885353,67.131828 93.678528,64.489738 
	C93.264473,68.463997 92.569862,72.177879 91.729782,75.978424 
	C91.752914,76.078140 91.921524,76.091209 92.444221,76.052994 
	C96.212036,74.334610 99.625748,72.667519 103.039467,71.000420 
	C101.457672,73.116829 99.875877,75.233238 97.744476,77.695221 
	C94.529854,78.941490 91.909088,80.056572 89.174667,80.621017 
	C88.275467,80.806625 87.081963,79.566437 86.023033,78.978226 
	C86.023033,78.978226 85.992905,78.996841 86.247070,78.848083 
	C86.675285,78.125191 86.849342,77.551048 87.023399,76.976906 
	C87.023399,76.976906 86.993401,76.995964 87.269890,76.829636 
	C87.984291,75.421127 88.422211,74.178940 88.860123,72.936752 
z"/>
<path fill="#ADB9A8" opacity="1.000000" stroke="none" 
	d="
M22.968121,78.049637 
	C21.259811,75.933464 19.551502,73.817299 18.236523,71.464157 
	C22.147186,73.135597 25.664518,75.043991 30.132610,77.468246 
	C28.831007,73.485222 27.930140,70.728485 27.029274,67.971756 
	C31.865343,65.708824 30.193663,70.956314 32.023964,72.948029 
	C32.732086,74.442024 33.372223,75.228714 34.012356,76.015396 
	C34.012356,76.015396 34.001080,75.998116 33.954773,76.333786 
	C34.275208,77.453011 34.641949,78.236549 35.008686,79.020096 
	C35.008686,79.020096 35.000805,79.000427 34.992592,79.350632 
	C34.453037,80.216415 33.781460,81.262688 33.412144,81.165092 
	C29.901520,80.237434 26.442196,79.115623 22.968121,78.049637 
z"/>
<path fill="#ACB8A8" opacity="1.000000" stroke="none" 
	d="
M22.190117,45.008633 
	C22.371273,45.017925 22.552429,45.027218 23.006996,45.065247 
	C22.881117,48.121555 22.481827,51.149124 21.787151,54.847481 
	C19.779930,57.380997 23.022202,61.932304 17.980656,61.988018 
	C17.980656,61.988018 17.998878,62.001019 18.069016,61.644730 
	C16.505148,58.461948 14.871143,55.635464 13.237139,52.808975 
	C13.122448,49.849869 13.007756,46.890762 13.241936,43.692543 
	C14.948672,46.837452 16.306536,50.221470 18.168041,54.860653 
	C19.385706,51.071747 20.204155,48.525040 21.022606,45.978336 
	C21.022608,45.978336 20.994202,45.995667 21.232597,45.896950 
	C21.710699,45.535034 21.950407,45.271835 22.190117,45.008633 
z"/>
<path fill="#B7C2B3" opacity="1.000000" stroke="none" 
	d="
M72.083717,94.405899 
	C69.919258,92.918892 67.508194,91.687027 65.646011,89.887260 
	C62.571873,86.916176 59.601204,86.467430 55.554871,89.032196 
	C51.208466,87.474579 55.848766,86.050270 54.903389,84.602943 
	C58.748871,84.463806 62.594353,84.324661 66.771576,84.736603 
	C69.743431,87.459496 72.383553,89.631317 75.023682,91.803131 
	C74.414894,92.032356 73.806099,92.261581 72.809494,92.933929 
	C72.309029,93.720001 72.196373,94.062950 72.083717,94.405899 
z"/>
<path fill="#ABB7A7" opacity="1.000000" stroke="none" 
	d="
M98.154190,41.979248 
	C97.027382,39.517048 95.900566,37.054844 95.045082,34.353306 
	C95.883728,34.565395 96.451050,35.016823 97.159546,35.631203 
	C97.717728,36.189121 98.134727,36.584087 98.806450,37.237503 
	C100.143967,38.526985 101.226761,39.558014 103.145439,41.384983 
	C103.145439,36.384186 103.145439,32.747849 103.145439,29.111511 
	C107.884415,34.402302 105.773888,40.336975 104.423035,46.727554 
	C102.116142,45.516762 100.135170,43.748005 98.154190,41.979248 
z"/>
<path fill="#ABB8A7" opacity="1.000000" stroke="none" 
	d="
M54.474365,84.643631 
	C55.848766,86.050270 51.208466,87.474579 55.208595,89.028343 
	C55.160027,89.603363 54.788414,90.083206 53.888882,90.737442 
	C51.872425,90.079704 50.339607,87.849144 48.978794,91.050591 
	C43.662495,91.900368 38.272858,93.519608 33.641518,89.258194 
	C37.845013,88.276375 41.821236,87.603531 45.797462,86.930679 
	C46.499947,86.503708 47.202431,86.076729 47.957218,85.311493 
	C50.021461,84.876923 52.033401,84.780624 54.474365,84.643631 
z"/>
<path fill="#ADB9A9" opacity="1.000000" stroke="none" 
	d="
M75.465256,91.847954 
	C72.383553,89.631317 69.743431,87.459496 67.101532,84.898727 
	C68.445473,84.622711 69.791191,84.735649 71.878838,84.908020 
	C73.085228,84.986153 73.549690,85.004852 74.014145,85.023552 
	C74.014145,85.023552 73.996414,84.995178 74.125237,85.320404 
	C78.761162,88.728081 83.639748,89.524765 88.891624,88.024475 
	C85.544167,92.606224 80.651558,92.001320 75.465256,91.847954 
z"/>
<path fill="#ADB9A9" opacity="1.000000" stroke="none" 
	d="
M98.551720,36.979057 
	C98.134727,36.584087 97.717728,36.189121 97.192825,35.244297 
	C96.106567,33.736198 95.128220,32.777962 94.149872,31.819719 
	C93.360817,30.442337 92.571762,29.064955 92.200333,27.448547 
	C94.469978,28.405439 96.322006,29.601357 97.848793,30.587259 
	C98.285179,28.219872 98.688080,26.034124 99.090973,23.848377 
	C100.012535,25.347340 100.934090,26.846302 101.696762,28.897278 
	C100.991020,32.137089 104.578537,36.464508 98.551720,36.979057 
z"/>
<path fill="#E5E9E4" opacity="1.000000" stroke="none" 
	d="
M26.929691,68.177170 
	C27.930140,70.728485 28.831007,73.485222 30.132610,77.468246 
	C25.664518,75.043991 22.147186,73.135597 18.302441,71.106171 
	C17.975027,70.985138 18.012934,70.993431 17.877899,70.752769 
	C17.400387,70.330269 17.057907,70.148438 16.715425,69.966606 
	C16.467764,68.892044 16.220102,67.817490 15.969107,66.396927 
	C19.163568,68.509338 22.361366,70.967743 26.390526,74.065277 
	C26.212778,71.759026 26.130630,70.693153 26.084564,69.273743 
	C26.431597,68.839294 26.668085,68.660088 26.929691,68.177170 
z"/>
<path fill="#E5E9E3" opacity="1.000000" stroke="none" 
	d="
M103.017952,70.999680 
	C99.625748,72.667519 96.212036,74.334610 92.392426,75.997925 
	C91.986526,75.994141 91.875252,75.891762 91.875252,75.891762 
	C92.569862,72.177879 93.264473,68.463997 93.992844,64.331100 
	C94.492004,63.857559 94.957405,63.803032 95.629738,63.819893 
	C95.536636,66.306458 95.236618,68.721634 94.797806,71.615967 
	C94.794785,72.089180 94.930565,72.083244 95.066345,72.077309 
	C97.367210,70.982727 99.668076,69.888145 102.451675,68.877853 
	C102.934418,68.962143 103.187668,69.258049 103.124985,69.551689 
	C103.042534,70.244110 103.022781,70.642891 103.003029,71.041672 
	C103.003029,71.041672 102.996437,70.998940 103.017952,70.999680 
z"/>
<path fill="#E3E7E1" opacity="1.000000" stroke="none" 
	d="
M22.979334,78.396317 
	C26.442196,79.115623 29.901520,80.237434 33.412144,81.165092 
	C33.781460,81.262688 34.453037,80.216415 34.984573,79.343712 
	C36.375034,80.157066 37.765293,81.327545 39.155552,82.498024 
	C38.985996,82.827438 38.816437,83.156860 38.646881,83.486275 
	C34.546764,83.125862 30.446646,82.765450 26.112419,82.712891 
	C24.915726,81.594818 23.953136,80.168900 22.979334,78.396317 
z"/>
<path fill="#DBE1DA" opacity="1.000000" stroke="none" 
	d="
M99.036591,23.562811 
	C98.688080,26.034124 98.285179,28.219872 97.848793,30.587259 
	C96.322006,29.601357 94.469978,28.405439 92.290207,27.106754 
	C91.962456,27.003988 92.000374,26.996397 91.874268,26.760357 
	C91.419479,26.343418 91.090782,26.162518 90.762093,25.981615 
	C90.507950,24.894634 90.253815,23.807653 90.288071,22.514545 
	C92.180504,23.744713 93.784546,25.181005 96.426079,27.546286 
	C95.716362,25.017776 95.418236,23.955635 95.327011,22.807632 
	C95.792404,22.538923 95.954842,22.292665 96.013367,21.989529 
	C96.005508,21.996063 95.992683,22.013189 95.992683,22.013187 
	C96.989189,22.434542 97.985695,22.855894 99.036591,23.562811 
z"/>
<path fill="#E8EBE7" opacity="1.000000" stroke="none" 
	d="
M20.698166,46.077896 
	C20.204155,48.525040 19.385706,51.071747 18.168041,54.860653 
	C16.306536,50.221470 14.948672,46.837452 13.305426,43.249184 
	C13.414330,42.071201 13.808619,41.097469 14.529882,40.039135 
	C15.731129,42.751972 16.605402,45.549412 17.479673,48.346848 
	C17.902948,48.747162 18.326225,49.147476 18.749500,49.547791 
	C19.290909,48.424347 19.832315,47.300903 20.698166,46.077896 
z"/>
<path fill="#E3E7E2" opacity="1.000000" stroke="none" 
	d="
M85.698563,79.082916 
	C87.081963,79.566437 88.275467,80.806625 89.174667,80.621017 
	C91.909088,80.056572 94.529854,78.941490 97.558502,77.967819 
	C97.673637,78.864952 97.425140,79.835075 96.896301,80.885010 
	C92.119759,81.828835 87.623558,82.692871 83.127365,83.556900 
	C82.882393,83.178467 82.637413,82.800026 82.392441,82.421593 
	C83.386322,81.343597 84.380203,80.265602 85.698563,79.082916 
z"/>
<path fill="#ADB9A8" opacity="1.000000" stroke="none" 
	d="
M27.025398,21.022993 
	C28.684816,19.920364 30.344234,18.817736 32.003654,17.715107 
	C32.334644,18.030403 32.665638,18.345701 32.996628,18.660997 
	C32.027710,20.225348 31.058794,21.789700 29.662903,23.810658 
	C28.152588,25.510977 27.069246,26.754686 25.985905,27.998394 
	C25.985905,27.998394 26.001688,28.002327 25.682201,27.935415 
	C25.916941,25.586666 26.471170,23.304831 27.025398,21.022993 
z"/>
<path fill="#E9ECE8" opacity="1.000000" stroke="none" 
	d="
M89.232201,87.973198 
	C83.639748,89.524765 78.761162,88.728081 74.110367,85.312721 
	C79.346718,85.291649 84.726768,85.603477 90.507912,85.883987 
	C90.463600,86.542419 90.018188,87.232170 89.232201,87.973198 
z"/>
<path fill="#AEBAA9" opacity="1.000000" stroke="none" 
	d="
M95.120102,22.893496 
	C95.418236,23.955635 95.716362,25.017776 96.426079,27.546286 
	C93.784546,25.181005 92.180504,23.744713 90.280655,22.162025 
	C88.993790,20.595306 88.002724,19.174984 87.011665,17.754662 
	C87.253967,17.428181 87.496262,17.101702 87.738556,16.775221 
	C89.699219,17.995207 91.659889,19.215191 93.891342,20.946215 
	C94.336143,21.766426 94.598457,21.948141 94.976562,22.228104 
	C95.004044,22.453808 95.120102,22.893496 95.120102,22.893496 
z"/>
<path fill="#DEE3DD" opacity="1.000000" stroke="none" 
	d="
M97.886147,42.114136 
	C100.135170,43.748005 102.116142,45.516762 104.346573,47.154083 
	C104.801147,47.002357 105.006271,46.982063 105.517746,46.926529 
	C105.111084,48.823734 104.398071,50.756172 103.514381,53.151184 
	C101.506943,50.108978 99.859085,47.611698 97.849792,44.946842 
	C97.531609,43.935848 97.574852,43.092438 97.886147,42.114136 
z"/>
<path fill="#EEF0ED" opacity="1.000000" stroke="none" 
	d="
M45.571602,86.629410 
	C41.821236,87.603531 37.845013,88.276375 33.422840,88.967056 
	C32.976894,88.984886 33.029713,88.997353 32.945969,88.800430 
	C32.661400,88.346085 32.409321,88.157021 32.105984,88.036293 
	C31.750267,87.612350 31.394552,87.188400 30.996489,86.478561 
	C35.751339,86.237816 40.548538,86.282974 45.571602,86.629410 
z"/>
<path fill="#DFE3DD" opacity="1.000000" stroke="none" 
	d="
M26.675915,21.021452 
	C26.471170,23.304831 25.916941,25.586666 25.682766,27.927301 
	C24.985771,29.194958 23.968727,30.403818 22.951681,31.612677 
	C22.684145,31.482367 22.416607,31.352058 22.149071,31.221748 
	C22.414257,29.721922 22.679443,28.222094 22.980484,26.017651 
	C23.011995,24.853807 23.007650,24.394579 23.003307,23.935350 
	C24.111015,22.963537 25.218721,21.991724 26.675915,21.021452 
z"/>
<path fill="#E7EAE5" opacity="1.000000" stroke="none" 
	d="
M18.102160,62.305168 
	C23.022202,61.932304 19.779930,57.380997 21.785955,55.256943 
	C22.080145,54.995628 22.563707,54.991840 22.805141,55.010757 
	C22.626057,58.391777 22.205536,61.753876 21.674732,65.997711 
	C20.305960,64.658951 19.264811,63.640636 18.102160,62.305168 
z"/>
<path fill="#E7EAE5" opacity="1.000000" stroke="none" 
	d="
M13.047291,53.153641 
	C14.871143,55.635464 16.505148,58.461948 18.075319,61.653976 
	C16.275000,60.416405 14.538514,58.813293 12.489359,57.227516 
	C12.403606,55.996006 12.630526,54.747158 13.047291,53.153641 
z"/>
<path fill="#E3E7E2" opacity="1.000000" stroke="none" 
	d="
M98.806450,37.237503 
	C104.578537,36.464508 100.991020,32.137089 101.792503,29.223343 
	C102.231010,29.004833 102.414894,29.012274 102.872116,29.065613 
	C103.145439,32.747849 103.145439,36.384186 103.145439,41.384983 
	C101.226761,39.558014 100.143967,38.526985 98.806450,37.237503 
z"/>
<path fill="#B7C2B3" opacity="1.000000" stroke="none" 
	d="
M48.970139,91.359299 
	C50.339607,87.849144 51.872425,90.079704 53.680397,90.955917 
	C52.416367,92.196983 50.832905,93.393967 49.246574,94.232269 
	C49.108997,93.548363 48.974281,93.223145 48.839561,92.897926 
	C48.880203,92.487953 48.920845,92.077980 48.970139,91.359299 
z"/>
<path fill="#AEBAAA" opacity="1.000000" stroke="none" 
	d="
M98.194305,52.341175 
	C98.629608,53.135727 98.945824,54.264416 99.131020,55.696556 
	C99.000000,56.000000 98.999413,56.000324 98.999413,56.000324 
	C98.568306,56.000439 98.137199,56.000553 97.383324,56.001076 
	C97.398773,54.892765 97.737000,53.784039 98.194305,52.341175 
z"/>
<path fill="#DFE3DD" opacity="1.000000" stroke="none" 
	d="
M26.313908,28.020706 
	C27.069246,26.754686 28.152588,25.510977 29.502792,24.121826 
	C30.034435,24.537472 30.299219,25.098555 30.091827,25.926678 
	C29.412004,26.474434 29.204355,26.755150 28.996706,27.035866 
	C28.996706,27.035866 28.997236,26.989437 28.788773,27.067272 
	C28.288431,27.309032 28.075945,27.544575 27.942852,27.851734 
	C27.509205,27.915497 27.075556,27.979258 26.313908,28.020706 
z"/>
<path fill="#E5E9E3" opacity="1.000000" stroke="none" 
	d="
M102.798058,68.823120 
	C103.235756,67.864243 103.809814,67.044395 104.656143,66.079987 
	C104.784828,67.505592 104.641243,69.075768 104.228119,70.542023 
	C103.701607,70.044754 103.444641,69.651398 103.187668,69.258049 
	C103.187668,69.258049 102.934418,68.962143 102.798058,68.823120 
z"/>
<path fill="#E5E9E4" opacity="1.000000" stroke="none" 
	d="
M26.239563,65.949844 
	C25.633366,65.190765 25.371469,64.381516 25.178463,63.239151 
	C26.079643,63.296005 26.911938,63.685970 27.744232,64.075935 
	C27.357445,64.683846 26.970657,65.291756 26.239563,65.949844 
z"/>
<path fill="#E3E7E2" opacity="1.000000" stroke="none" 
	d="
M94.109131,32.101028 
	C95.128220,32.777962 96.106567,33.736198 97.051643,35.081345 
	C96.451050,35.016823 95.883728,34.565395 94.971100,33.976181 
	C94.439987,33.353043 94.254181,32.867687 94.109131,32.101028 
z"/>
<path fill="#E3E7E1" opacity="1.000000" stroke="none" 
	d="
M34.036545,75.677582 
	C33.372223,75.228714 32.732086,74.442024 32.131165,73.289124 
	C32.685955,73.114960 33.201542,73.307007 33.856483,73.742874 
	C34.017471,74.437721 34.039101,74.888748 34.036545,75.677582 
z"/>
<path fill="#E3E7E2" opacity="1.000000" stroke="none" 
	d="
M88.588257,72.970062 
	C88.422211,74.178940 87.984291,75.421127 87.268021,76.847305 
	C86.981422,76.243675 86.973190,75.456039 87.001320,74.272774 
	C87.463913,73.585884 87.890152,73.294632 88.588257,72.970062 
z"/>
<path fill="#E9ECE8" opacity="1.000000" stroke="none" 
	d="
M74.094574,84.752533 
	C73.549690,85.004852 73.085228,84.986153 72.281799,84.879662 
	C72.733894,84.192032 73.524971,83.592201 74.659477,82.997124 
	C74.726936,83.495102 74.450966,83.988312 74.094574,84.752533 
z"/>
<path fill="#AEBAAA" opacity="1.000000" stroke="none" 
	d="
M22.671446,23.968960 
	C23.007650,24.394579 23.011995,24.853807 22.977688,25.655191 
	C22.419865,25.979059 21.900696,25.960770 20.990009,25.899509 
	C21.178860,25.238548 21.759222,24.620560 22.671446,23.968960 
z"/>
<path fill="#ABB8A7" opacity="1.000000" stroke="none" 
	d="
M48.672302,93.016434 
	C48.974281,93.223145 49.108997,93.548363 49.046638,93.985512 
	C48.734718,93.776604 48.619881,93.455772 48.672302,93.016434 
z"/>
<path fill="#ABB7A6" opacity="1.000000" stroke="none" 
	d="
M103.124985,69.551689 
	C103.444641,69.651398 103.701607,70.044754 103.945419,70.695999 
	C103.932266,70.953896 103.469208,71.014397 103.236115,71.028030 
	C103.022781,70.642891 103.042534,70.244110 103.124985,69.551689 
z"/>
<path fill="#AEBAAA" opacity="1.000000" stroke="none" 
	d="
M27.992701,28.250330 
	C28.075945,27.544575 28.288431,27.309032 28.811258,27.073055 
	C28.907722,27.650383 28.773239,28.299765 28.394890,29.197060 
	C28.114862,29.179625 28.078707,28.914274 27.992701,28.250330 
z"/>
<path fill="#DBE1DA" opacity="1.000000" stroke="none" 
	d="
M94.949081,22.002398 
	C94.598457,21.948141 94.336143,21.766426 94.088043,21.222168 
	C94.577911,21.151793 95.141876,21.316504 95.849258,21.747202 
	C95.992683,22.013189 96.005508,21.996063 95.745461,22.007217 
	C95.306633,22.013046 95.127861,22.007721 94.949081,22.002398 
z"/>
<path fill="#ADB9A8" opacity="1.000000" stroke="none" 
	d="
M16.870533,70.221115 
	C17.057907,70.148438 17.400387,70.330269 17.877308,70.772461 
	C17.683046,70.847084 17.354343,70.661354 16.870533,70.221115 
z"/>
<path fill="#ABB8A7" opacity="1.000000" stroke="none" 
	d="
M32.186409,88.261703 
	C32.409321,88.157021 32.661400,88.346085 32.946373,88.827591 
	C32.720123,88.938988 32.465557,88.750801 32.186409,88.261703 
z"/>
<path fill="#ADB9A9" opacity="1.000000" stroke="none" 
	d="
M90.896484,26.242651 
	C91.090782,26.162518 91.419479,26.343418 91.872398,26.779949 
	C91.674713,26.858284 91.352798,26.680986 90.896484,26.242651 
z"/>
<path fill="#AEBAAA" opacity="1.000000" stroke="none" 
	d="
M29.269035,26.979797 
	C29.204355,26.755150 29.412004,26.474434 29.866663,26.088497 
	C29.922903,26.296761 29.732132,26.610245 29.269035,26.979797 
z"/>
<path fill="#ADB9A9" opacity="1.000000" stroke="none" 
	d="
M72.304466,94.239349 
	C72.196373,94.062950 72.309029,93.720001 72.643234,93.219238 
	C72.751587,93.398552 72.638397,93.735680 72.304466,94.239349 
z"/>
<path fill="#F8F8F8" opacity="1.000000" stroke="none" 
	d="
M81.184341,42.861145 
	C80.678658,51.711140 79.490379,59.928165 74.994278,67.236107 
	C67.589462,79.271858 56.016758,80.015709 48.117641,67.758797 
	C41.243244,57.091904 40.874176,44.898296 41.441071,31.963352 
	C43.827873,31.963352 45.921608,32.035213 48.007000,31.934425 
	C49.126572,31.880316 50.755196,31.924143 51.262302,31.251469 
	C56.165890,24.746874 63.913898,26.998466 68.416267,28.829924 
	C72.427521,30.461609 76.155281,31.849508 81.212227,32.004536 
	C81.212227,35.564327 81.212227,38.974350 81.184341,42.861145 
M64.083954,50.284756 
	C63.014256,49.828274 61.741177,49.596233 60.926651,48.858150 
	C59.922279,47.948032 58.951302,46.696281 58.662708,45.432983 
	C58.523872,44.825245 60.032833,43.149452 60.708931,43.196732 
	C61.965626,43.284611 63.227993,44.177711 64.354675,44.934162 
	C65.135277,45.458256 65.692406,46.315186 66.957809,47.679260 
	C67.563232,43.130306 65.758888,40.869358 62.683159,40.932625 
	C60.478302,40.977974 57.115452,42.436165 56.463688,44.115646 
	C55.806290,45.809639 57.610359,48.699585 58.832027,50.773342 
	C59.384335,51.710869 61.337456,51.713898 62.291641,52.553768 
	C63.305115,53.445827 64.265594,54.753647 64.512756,56.023285 
	C64.654037,56.749012 63.273018,58.532375 62.673256,58.489788 
	C61.221478,58.386696 59.748810,57.625832 58.436104,56.867699 
	C57.628090,56.401043 57.098972,55.451481 56.444630,54.718739 
	C55.921265,55.180634 55.397900,55.642525 54.874535,56.104416 
	C56.494671,57.695705 57.950085,60.319954 59.777512,60.611362 
	C61.959599,60.959332 65.320374,59.998280 66.624550,58.367706 
	C68.667885,55.812984 67.691879,52.685040 64.083954,50.284756 
z"/>
<path fill="#AEBAAA" opacity="1.000000" stroke="none" 
	d="
M99.000153,55.999832 
	C99.415649,57.071663 99.830994,58.143665 100.246338,59.215672 
	C99.608200,59.298801 98.970062,59.381935 98.331932,59.465069 
	C98.465240,58.516380 98.598549,57.567692 98.865631,56.309662 
	C98.999413,56.000324 99.000000,56.000000 99.000153,55.999832 
z"/>
<path fill="#AEBAAA" opacity="1.000000" stroke="none" 
	d="
M102.020996,60.961113 
	C101.782570,61.475346 101.564552,62.001789 101.275055,62.485451 
	C101.245186,62.535343 100.789223,62.330208 100.530975,62.243408 
	C100.841751,61.848236 101.152527,61.453064 101.730728,61.028584 
	C101.998161,60.999275 102.020996,60.961113 102.020996,60.961113 
z"/>
<path fill="#FDFDFD" opacity="1.000000" stroke="none" 
	d="
M106.184486,57.351654 
	C106.206253,56.957649 106.423393,56.734196 106.640526,56.510742 
	C106.553635,56.847893 106.466743,57.185043 106.184486,57.351654 
z"/>
<path fill="#FDFDFD" opacity="1.000000" stroke="none" 
	d="
M104.048111,60.041183 
	C103.573891,60.350376 103.099663,60.659573 102.323212,60.964943 
	C102.020996,60.961113 101.998161,60.999275 102.018593,60.991188 
	C102.476616,60.631279 102.914200,60.279457 103.673332,59.959946 
	C103.994881,59.992252 104.048111,60.041180 104.048111,60.041183 
z"/>
<path fill="#FDFDFD" opacity="1.000000" stroke="none" 
	d="
M103.970062,59.965969 
	C104.084106,59.711899 104.222969,59.484116 104.361847,59.256332 
	C104.391624,59.472057 104.421402,59.687778 104.249649,59.972343 
	C104.048111,60.041180 103.994881,59.992252 103.970062,59.965969 
z"/>
<path fill="#FDFDFD" opacity="1.000000" stroke="none" 
	d="
M108.059662,54.070122 
	C107.967346,54.373539 107.774277,54.574448 107.581207,54.775356 
	C107.526283,54.532009 107.471352,54.288658 107.584198,53.906712 
	C107.751976,53.768112 107.958916,53.967613 108.059662,54.070122 
z"/>
<path fill="#AEBAAA" opacity="1.000000" stroke="none" 
	d="
M18.792149,37.203426 
	C18.429258,37.803890 18.003628,38.105785 17.577999,38.407681 
	C17.463251,37.961578 17.348503,37.515472 17.233753,37.069366 
	C17.732306,37.014530 18.230856,36.959694 18.792149,37.203426 
z"/>
<path fill="#E8EBE7" opacity="1.000000" stroke="none" 
	d="
M22.011719,44.830982 
	C21.950407,45.271835 21.710699,45.535034 21.229542,45.913307 
	C21.269835,45.570030 21.551577,45.111679 22.011719,44.830982 
z"/>
<path fill="#AEBAAA" opacity="1.000000" stroke="none" 
	d="
M20.532436,36.548882 
	C20.477615,36.581455 20.587255,36.516312 20.532436,36.548882 
z"/>
<path fill="#E3E7E1" opacity="1.000000" stroke="none" 
	d="
M35.056553,78.674316 
	C34.641949,78.236549 34.275208,77.453011 33.948830,76.325348 
	C34.360935,76.763664 34.732677,77.546097 35.056553,78.674316 
z"/>
<path fill="#E3E7E2" opacity="1.000000" stroke="none" 
	d="
M86.734924,77.109970 
	C86.849342,77.551048 86.675285,78.125191 86.244743,78.865646 
	C86.140984,78.435646 86.293716,77.839333 86.734924,77.109970 
z"/>
<path fill="#E5E9E3" opacity="1.000000" stroke="none" 
	d="
M92.038330,76.049210 
	C91.921524,76.091209 91.752914,76.078140 91.729782,75.978424 
	C91.875252,75.891762 91.986526,75.994141 92.038330,76.049210 
z"/>
<path fill="#ADB9A9" opacity="1.000000" stroke="none" 
	d="
M95.036079,72.043945 
	C94.930565,72.083244 94.794785,72.089180 94.799133,72.022491 
	C94.939255,71.949867 95.005814,72.010582 95.036079,72.043945 
z"/>
<path fill="#FDFDFD" opacity="1.000000" stroke="none" 
	d="
M94.976562,22.228104 
	C95.127861,22.007721 95.306633,22.013046 95.753311,22.000683 
	C95.954842,22.292665 95.792404,22.538923 95.327011,22.807632 
	C95.120102,22.893496 95.004044,22.453808 94.976562,22.228104 
z"/>
<path fill="#2F2F2F" opacity="1.000000" stroke="none" 
	d="
M64.398232,50.483864 
	C67.691879,52.685040 68.667885,55.812984 66.624550,58.367706 
	C65.320374,59.998280 61.959599,60.959332 59.777512,60.611362 
	C57.950085,60.319954 56.494671,57.695705 54.874535,56.104416 
	C55.397900,55.642525 55.921265,55.180634 56.444630,54.718739 
	C57.098972,55.451481 57.628090,56.401043 58.436104,56.867699 
	C59.748810,57.625832 61.221478,58.386696 62.673256,58.489788 
	C63.273018,58.532375 64.654037,56.749012 64.512756,56.023285 
	C64.265594,54.753647 63.305115,53.445827 62.291641,52.553768 
	C61.337456,51.713898 59.384335,51.710869 58.832027,50.773342 
	C57.610359,48.699585 55.806290,45.809639 56.463688,44.115646 
	C57.115452,42.436165 60.478302,40.977974 62.683159,40.932625 
	C65.758888,40.869358 67.563232,43.130306 66.957809,47.679260 
	C65.692406,46.315186 65.135277,45.458256 64.354675,44.934162 
	C63.227993,44.177711 61.965626,43.284611 60.708931,43.196732 
	C60.032833,43.149452 58.523872,44.825245 58.662708,45.432983 
	C58.951302,46.696281 59.922279,47.948032 60.926651,48.858150 
	C61.741177,49.596233 63.014256,49.828274 64.398232,50.483864 
z"/>
</svg>